<?xml version="1.0" standalone="no"?>
<!DOCTYPE svg PUBLIC "-//W3C//DTD SVG 20010904//EN"
 "http://www.w3.org/TR/2001/REC-SVG-20010904/DTD/svg10.dtd">
<svg version="1.0" xmlns="http://www.w3.org/2000/svg"
 width="625.000000pt" height="584.000000pt" viewBox="0 0 625.000000 584.000000"
 preserveAspectRatio="xMidYMid meet">

<g transform="translate(0.000000,584.000000) scale(0.100000,-0.100000)"
fill="#000000" stroke="none">
<path d="M4396 5563 c-8 -49 -8 -231 0 -260 l6 -23 280 0 c178 0 278 -4 276
-10 -1 -5 -237 -179 -523 -385 -286 -207 -556 -402 -600 -434 -44 -32 -195
-140 -335 -241 -140 -101 -293 -211 -340 -245 -47 -34 -238 -172 -425 -307
-744 -535 -1217 -876 -1350 -973 -77 -56 -272 -197 -433 -314 -368 -268 -348
-250 -331 -283 24 -44 154 -218 163 -218 5 0 124 82 265 183 636 456 973 698
1976 1422 215 155 545 393 735 530 190 136 383 276 430 310 456 333 1063 765
1068 760 4 -4 9 -166 10 -361 l4 -354 161 2 162 3 3 618 2 617 -599 0 -598 0
-7 -37z"/>
<path d="M4840 2365 l0 -2105 160 0 160 0 0 2105 0 2105 -160 0 -160 0 0
-2105z"/>
<path d="M3847 3814 c-4 -4 -7 -805 -7 -1781 l0 -1773 165 0 165 0 -2 1778 -3
1777 -156 3 c-85 1 -158 -1 -162 -4z"/>
<path d="M2840 1715 l0 -1455 165 0 165 0 0 1455 0 1455 -165 0 -165 0 0
-1455z"/>
<path d="M1850 1340 l0 -1080 160 0 160 0 0 1080 0 1080 -160 0 -160 0 0
-1080z"/>
<path d="M850 880 l0 -620 160 0 160 0 0 620 0 620 -160 0 -160 0 0 -620z"/>
</g>
</svg>
