<?xml version="1.0" standalone="no"?>
<!DOCTYPE svg PUBLIC "-//W3C//DTD SVG 20010904//EN"
 "http://www.w3.org/TR/2001/REC-SVG-20010904/DTD/svg10.dtd">
<svg version="1.0" xmlns="http://www.w3.org/2000/svg"
 width="761.000000pt" height="1280.000000pt" viewBox="0 0 761.000000 1280.000000"
 preserveAspectRatio="xMidYMid meet">
<g transform="translate(0.000000,1280.000000) scale(0.100000,-0.100000)"
fill="#000000" stroke="none">
<path d="M3320 11997 l0 -263 -112 -12 c-460 -51 -891 -170 -1216 -336 -214
-110 -374 -228 -557 -411 -381 -380 -602 -825 -690 -1385 -26 -163 -31 -559
-11 -740 82 -709 413 -1271 961 -1635 354 -235 966 -505 1470 -649 l150 -42 3
-1773 2 -1773 -62 7 c-94 10 -280 53 -377 87 -267 93 -523 263 -728 482 -221
237 -380 590 -469 1043 -15 76 -30 141 -33 145 -4 4 -260 -39 -571 -96 l-565
-103 3 -74 c5 -169 64 -502 127 -717 82 -284 212 -566 367 -797 417 -623 892
-933 1721 -1125 130 -30 416 -82 530 -95 l57 -7 0 -574 0 -574 365 0 365 0 0
624 0 625 53 5 c28 3 104 10 167 16 404 40 819 166 1145 348 228 127 393 251
594 447 446 435 715 958 811 1580 77 500 34 1037 -118 1461 -195 542 -527 952
-1024 1264 -343 215 -667 333 -1405 511 l-223 54 0 1483 c0 1363 1 1482 16
1482 36 0 256 -54 370 -91 280 -91 549 -258 700 -436 165 -195 294 -466 351
-738 l17 -86 36 6 c19 3 276 50 570 104 l535 98 -3 44 c-2 24 -17 108 -33 187
-119 576 -385 1071 -771 1437 -200 189 -442 351 -688 460 -277 123 -646 219
-990 257 l-110 12 -2 260 -3 261 -362 3 -363 2 0 -263z m0 -2853 c0 -1166 -2
-1445 -13 -1441 -7 2 -57 17 -110 31 -324 89 -646 233 -837 376 -249 186 -412
455 -477 785 -24 124 -24 396 0 517 50 251 164 469 345 660 219 230 479 376
822 463 78 20 220 49 263 54 4 1 7 -650 7 -1445z m995 -2880 c66 -20 185 -61
265 -91 695 -264 1034 -622 1116 -1177 24 -164 15 -457 -20 -622 -70 -332
-214 -600 -451 -839 -161 -163 -293 -259 -498 -361 -174 -88 -414 -160 -629
-190 l-48 -6 0 1680 0 1681 73 -20 c39 -11 126 -36 192 -55z"/>
</g>
</svg>
