<?xml version="1.0" encoding="iso-8859-1"?>
<!-- Generator: Adobe Illustrator 19.0.0, SVG Export Plug-In . SVG Version: 6.00 Build 0)  -->
<svg version="1.1" id="Capa_1" xmlns="http://www.w3.org/2000/svg" xmlns:xlink="http://www.w3.org/1999/xlink" x="0px" y="0px"
	 viewBox="0 0 511.998 511.998" style="enable-background:new 0 0 511.998 511.998;" xml:space="preserve">
<g>
	<g>
		<path d="M465.135,165.947L325.631,126.09V56.438h88.512v16.036h-13.194c-4.149,0-7.512,3.362-7.512,7.512v31.062
			c0,4.15,3.363,7.512,7.512,7.512h41.415c4.149,0,7.512-3.362,7.512-7.512V79.987c0-4.15-3.363-7.512-7.512-7.512h-13.197V56.438
			h33.905c3.746,0,6.92-2.76,7.44-6.47c0.52-3.71-1.774-7.235-5.376-8.265L320.359,0.341c-0.008-0.003-0.017-0.005-0.025-0.007
			l-0.152-0.043c-0.059-0.017-0.117-0.026-0.176-0.041c-0.161-0.042-0.323-0.082-0.488-0.113c-0.12-0.023-0.239-0.038-0.359-0.055
			c-0.119-0.017-0.237-0.035-0.358-0.046c-0.166-0.015-0.332-0.021-0.498-0.025C318.241,0.008,318.181,0,318.119,0h-0.161
			c-0.007,0-0.015,0-0.022,0H194.064c-0.013,0-0.027,0-0.04,0h-0.147c-0.057,0-0.113,0.007-0.17,0.009
			c-0.172,0.004-0.344,0.01-0.516,0.026c-0.115,0.01-0.228,0.028-0.343,0.044c-0.124,0.018-0.248,0.033-0.374,0.057
			c-0.162,0.031-0.321,0.07-0.478,0.111c-0.061,0.016-0.122,0.025-0.183,0.042l-0.156,0.045c-0.006,0.002-0.012,0.003-0.018,0.005
			L46.861,41.703c-3.602,1.03-5.895,4.555-5.375,8.265c0.52,3.71,3.694,6.47,7.44,6.47h33.903v16.036H69.632
			c-4.149,0-7.512,3.362-7.512,7.512v31.062c0,4.15,3.363,7.512,7.512,7.512h41.415c4.149,0,7.512-3.362,7.512-7.512V79.987
			c0-4.15-3.363-7.512-7.512-7.512H97.851V56.438h88.514v69.651L46.861,165.947c-3.602,1.03-5.895,4.555-5.375,8.265
			c0.52,3.71,3.694,6.47,7.44,6.47h33.903v16.036H69.632c-4.149,0-7.512,3.362-7.512,7.512v31.062c0,4.15,3.363,7.512,7.512,7.512
			h41.415c4.149,0,7.512-3.362,7.512-7.512v-31.062c0-4.15-3.363-7.512-7.512-7.512H97.851v-16.036h88.514v74.265l-30.723,107.526
			c-0.001,0.004-0.002,0.009-0.004,0.013l-0.06,0.209c-0.001,0.003-0.002,0.007-0.003,0.01l-0.014,0.049
			c-0.002,0.009-0.005,0.018-0.008,0.026l-29.467,103.13h-15.041c-4.149,0-7.512,3.362-7.512,7.512v23.551H88.183
			c-4.149,0-7.512,3.362-7.512,7.512s3.363,7.512,7.512,7.512h22.864h289.904h22.862c4.149,0,7.512-3.362,7.512-7.512
			s-3.363-7.512-7.512-7.512h-15.35v-23.551c0-4.15-3.363-7.512-7.512-7.512h-15.042l-29.465-103.123
			c-0.004-0.015-0.009-0.031-0.013-0.046l-0.068-0.239c-0.004-0.012-0.007-0.024-0.01-0.036l-30.721-107.52v-74.265h88.512v16.036
			h-13.194c-4.149,0-7.512,3.362-7.512,7.512v31.062c0,4.15,3.363,7.512,7.512,7.512h41.415c4.149,0,7.512-3.362,7.512-7.512V204.23
			c0-4.15-3.363-7.512-7.512-7.512h-13.197v-16.036h33.905c3.746,0,6.92-2.76,7.44-6.47
			C471.03,170.502,468.736,166.977,465.135,165.947z M434.852,87.499v16.038h-26.391V87.499H434.852z M325.631,17.472l83.804,23.943
			h-83.804V17.472z M103.535,87.499v16.038H77.144V87.499H103.535z M103.535,211.741v16.038H77.144v-16.038H103.535z
			 M201.389,15.024h109.218v26.391H201.389V15.024z M310.607,56.438v61.281l-91.922-61.281H310.607z M201.389,62.963l91.92,61.28
			h-91.92V62.963z M201.389,139.267h109.218v26.392H201.389V139.267z M186.647,357.199l69.352-48.546l69.352,48.546H186.647z
			 M317.361,372.223l-61.363,30.682l-61.362-30.682H317.361z M217.708,263.511h76.58l-38.29,26.802L217.708,263.511z
			 M310.607,180.682v61.28l-91.921-61.28H310.607z M201.389,187.206l91.923,61.282h-91.923V187.206z M102.56,41.414l83.805-23.943
			v23.943H102.56z M102.56,165.658l83.805-23.945v23.945H102.56z M198.204,268.198l44.695,31.286l-67.042,46.928L198.204,268.198z
			 M167.552,375.477l71.649,35.825l-95.533,47.767L167.552,375.477z M380.237,480.939L380.237,480.939h0.002
			c0.009,0,0.019-0.002,0.028-0.002h13.173v16.039h-0.001H118.56v-16.039h13.172c0.01,0,0.019,0.002,0.028,0.002
			c0.011,0,0.023-0.002,0.034-0.002h0.108c0.013,0,0.027,0,0.04,0h70.751c4.149,0,7.512-3.362,7.512-7.512
			c0-4.15-3.363-7.512-7.512-7.512h-39.119l92.424-46.212l92.424,46.212H236.184c-4.149,0-7.512,3.362-7.512,7.512
			c0,4.15,3.363,7.512,7.512,7.512h144.019C380.214,480.937,380.226,480.939,380.237,480.939z M368.328,459.069l-95.533-47.767
			l71.649-35.825L368.328,459.069z M336.14,346.413l-67.043-46.929l44.695-31.286L336.14,346.413z M325.631,165.658v-23.944
			l83.805,23.944H325.631z M434.852,211.741v16.038h-26.391v-16.038H434.852z"/>
	</g>
</g>
<g>
</g>
<g>
</g>
<g>
</g>
<g>
</g>
<g>
</g>
<g>
</g>
<g>
</g>
<g>
</g>
<g>
</g>
<g>
</g>
<g>
</g>
<g>
</g>
<g>
</g>
<g>
</g>
<g>
</g>
</svg>
