<?xml version="1.0" encoding="utf-8"?>
<!-- Svg Vector Icons : http://www.onlinewebfonts.com/icon -->
<!DOCTYPE svg PUBLIC "-//W3C//DTD SVG 1.1//EN" "http://www.w3.org/Graphics/SVG/1.1/DTD/svg11.dtd">
<svg version="1.1" xmlns="http://www.w3.org/2000/svg" xmlns:xlink="http://www.w3.org/1999/xlink" x="0px" y="0px" viewBox="0 0 1000 1000" enable-background="new 0 0 1000 1000" xml:space="preserve">
<metadata> Svg Vector Icons : http://www.onlinewebfonts.com/icon </metadata>
<g><path d="M532.7,706.9c-1.6-17.9-16.5-31.9-34.8-31.9c-16.7,0-30.6,11.7-34.1,27.4l0,0l-34.2,202.3c-1.1,4.9-1.7,10-1.7,15.3c0,38.7,31.3,70,70,70s70-31.3,70-70c0-6.3-0.9-12.5-2.4-18.3L532.7,706.9z"/><path d="M609.2,716.7L609.2,716.7L609.2,716.7L609.2,716.7z"/><path d="M799.4,793.7c-3.8-3.1-7.2-6.3-11.2-8.6L649,681.2c-12.6-8.3-26.2-8.1-36.2,1.9c-9,9.1-10.3,22.7-3.7,33.6l107.1,143.9c2.1,3.3,4.7,6.1,7.4,9.2c17.1,19.8,54.9,21,75.8,0C820.3,848.7,820,810.6,799.4,793.7z"/><path d="M754.9,672.9L754.9,672.9L754.9,672.9L754.9,672.9z"/><path d="M892.5,645.4l-130.2-5c-8.5-1.2-16.2,4.5-17.6,13.1c-1.3,7.9,2.9,15.6,10.2,19.3l0-0.1c0.1,0,0.1,0,0.2,0.1l126.3,38.8c18.1,4.2,38.6-5.1,38.6-25.5C920,660.4,913.3,648,892.5,645.4z"/><path d="M244.5,672.9L244.5,672.9L244.5,672.9L244.5,672.9z"/><path d="M244.5,672.8L244.5,672.8c7.3-3.6,11.6-11.3,10.2-19.2c-1.5-8.7-9.1-14.4-17.6-13.1l-130.2,5C86.2,648,80,660.4,80,686.2c0,20.4,19.9,29.7,38,25.5l126.3-38.8C244.4,672.8,244.4,672.8,244.5,672.8z"/><path d="M351,681.1L211.9,784.9c-4,2.3-7.8,5.2-11.2,8.6c-20.9,20.9-20.9,54.9,0,75.8c20.9,20.9,54.8,21,75.7,0c2.8-2.8,5.3-5.9,7.3-9.2l107.1-143.6c6.6-10.9,5.4-24.5-3.7-33.6C377.3,673.1,361.6,672.3,351,681.1z"/><path d="M710,220C710,86.6,551.7,10,500,10c26.3,187.1-222.4,261.8-245,420c-22.6,158.2,105,210,105,210c35.7-131,158.3-175,239.9-231.1C688.9,347.6,710,290.1,710,220z"/><path d="M710,500c11-34.2,10.7-107.2,0-140c-19.7,40.5-57.5,75-103.2,106.5c-18.8,12.9-43.4,25-63.1,36.7c-40.9,24.4-76.5,47.8-103.5,79.6c24.8,38,61.9,57.1,94.8,57.1C613.7,640,675,608.6,710,500z"/><path d="M272.6,290c25.6-34.9,54.4-55.1,83.5-83.9c29.4-29,48.3-49.2,60.1-72.6C392.9,86.9,355.3,75.3,325,80c5.1,66.4-65.6,101.9-70,150.2C252.3,259.4,260.5,281.3,272.6,290z"/></g>
</svg>