<?xml version="1.0" standalone="no"?>
<!DOCTYPE svg PUBLIC "-//W3C//DTD SVG 20010904//EN"
 "http://www.w3.org/TR/2001/REC-SVG-20010904/DTD/svg10.dtd">
<svg version="1.0" xmlns="http://www.w3.org/2000/svg"
 width="700.000000pt" height="700.000000pt" viewBox="0 0 700.000000 700.000000"
 preserveAspectRatio="xMidYMid meet">
<metadata>
Created by potrace 1.16, written by Peter Selinger 2001-2019
</metadata>
<g transform="translate(0.000000,700.000000) scale(0.100000,-0.100000)"
fill="#000000" stroke="none">
<path d="M3135 6960 c-33 -4 -91 -17 -129 -29 -37 -11 -81 -21 -97 -21 -16 0
-57 -11 -91 -24 -35 -13 -88 -29 -118 -35 -30 -6 -62 -19 -71 -27 -10 -9 -40
-27 -67 -42 -138 -75 -246 -145 -309 -202 -21 -19 -61 -50 -88 -69 -69 -47
-108 -85 -173 -166 -30 -38 -63 -77 -71 -86 -9 -8 -32 -37 -51 -63 -19 -26
-57 -74 -83 -106 -26 -33 -63 -88 -81 -122 -62 -120 -216 -569 -216 -632 0
-17 -7 -76 -16 -131 -18 -119 -25 -296 -13 -345 4 -19 15 -84 23 -145 17 -124
57 -322 83 -405 16 -55 109 -260 122 -270 3 -3 22 -36 42 -75 79 -153 124
-233 167 -300 81 -124 186 -315 240 -435 9 -19 39 -71 68 -115 60 -92 99 -171
149 -305 20 -52 54 -135 75 -185 21 -49 41 -106 45 -125 10 -50 43 -161 78
-260 16 -47 40 -128 52 -180 12 -52 24 -102 28 -110 11 -27 26 -94 32 -151 6
-50 4 -60 -14 -78 -26 -26 -27 -65 -1 -91 11 -11 20 -31 20 -45 0 -14 -8 -29
-20 -35 -26 -14 -26 -52 0 -75 11 -10 20 -29 20 -41 0 -13 -9 -29 -20 -36 -11
-7 -20 -23 -20 -35 0 -13 9 -32 20 -43 11 -11 20 -31 20 -45 0 -14 -8 -29 -20
-35 -11 -6 -20 -20 -20 -30 0 -11 9 -29 20 -40 11 -11 20 -30 20 -43 0 -12 -9
-30 -20 -40 -11 -9 -20 -23 -20 -31 0 -7 9 -25 20 -39 24 -30 26 -70 4 -88
-17 -14 -15 -43 7 -96 11 -28 11 -34 -4 -51 -21 -23 -21 -40 -1 -82 13 -26 14
-37 5 -51 -6 -10 -11 -36 -11 -58 0 -35 5 -44 43 -74 23 -19 67 -47 97 -64 30
-16 71 -38 90 -49 19 -10 90 -59 158 -107 69 -48 134 -93 146 -99 11 -6 23
-14 26 -18 3 -3 36 -30 74 -58 44 -33 79 -52 96 -52 16 0 52 16 81 37 30 20
87 57 128 81 41 24 112 75 158 113 47 38 88 69 92 69 4 0 16 8 27 18 11 10 42
31 69 47 28 16 59 37 71 47 11 10 42 22 68 27 26 5 52 13 57 18 14 14 14 80
-1 97 -8 10 -10 27 -5 48 6 31 7 52 4 146 -1 20 -1 53 0 72 0 19 0 53 -1 75 0
22 2 50 5 62 3 12 1 39 -5 60 -7 27 -7 51 2 89 11 45 11 55 -4 75 -20 29 -21
63 -1 79 16 14 20 56 6 64 -16 10 -19 45 -5 72 18 34 18 54 -3 94 -15 31 -15
36 0 63 21 36 21 60 0 104 -14 30 -15 43 -5 87 7 28 19 92 27 142 20 123 39
204 57 239 9 17 21 61 27 98 6 37 18 82 26 100 16 37 39 109 60 185 8 29 23
69 34 90 10 20 35 87 55 147 21 61 44 117 52 126 8 8 14 23 14 31 0 20 107
231 147 288 17 25 55 90 84 145 29 55 79 141 111 190 179 281 273 445 327 570
23 55 46 109 51 120 39 88 71 211 109 425 38 206 25 554 -25 735 -46 163 -127
382 -162 439 -22 33 -58 97 -81 141 -24 44 -51 89 -61 100 -10 11 -32 42 -49
70 -17 27 -71 92 -119 144 -127 137 -135 145 -222 214 -19 15 -48 39 -65 53
-173 148 -609 333 -786 334 -35 1 -100 7 -144 15 -84 15 -340 18 -450 5z m445
-40 c25 -5 80 -9 123 -10 65 0 101 -8 226 -49 171 -56 376 -153 471 -221 19
-14 48 -32 63 -40 16 -8 33 -22 38 -32 6 -10 27 -29 47 -42 20 -14 51 -36 67
-50 17 -14 35 -29 40 -34 18 -16 190 -206 213 -237 26 -34 113 -169 141 -220
19 -33 42 -75 53 -93 10 -18 18 -37 18 -43 0 -5 11 -27 25 -47 14 -20 25 -43
25 -50 0 -12 19 -65 56 -157 4 -11 8 -28 9 -37 3 -24 25 -109 35 -133 5 -11
11 -40 15 -65 16 -122 26 -199 30 -240 3 -25 7 -61 10 -81 6 -47 -28 -360 -54
-494 -5 -27 -19 -70 -30 -95 -11 -25 -21 -55 -21 -66 0 -32 -94 -256 -140
-334 -27 -46 -81 -140 -98 -170 -26 -47 -112 -184 -185 -294 -32 -49 -72 -117
-89 -150 -17 -34 -49 -90 -73 -126 -51 -78 -88 -148 -175 -335 -6 -11 -29 -76
-53 -145 -25 -69 -62 -174 -84 -235 -80 -219 -143 -441 -163 -570 -6 -38 -20
-116 -32 -172 l-21 -103 -174 0 -173 0 -1 648 c0 356 -1 699 -2 762 l-2 115
69 12 c179 33 319 125 431 284 29 42 60 82 67 90 8 8 25 46 38 84 30 92 34
274 7 348 -20 55 -66 150 -77 157 -4 3 -13 17 -21 32 -26 49 -130 148 -200
188 -88 52 -214 106 -267 115 l-42 7 0 349 c0 307 2 349 15 349 15 0 96 -81
155 -155 35 -44 75 -126 85 -175 19 -89 68 -126 158 -117 57 5 94 29 124 83
45 79 20 215 -69 371 -59 103 -190 268 -230 290 -51 27 -216 93 -233 93 -13 0
-15 24 -15 151 l0 150 -32 30 c-29 25 -40 29 -94 29 -52 0 -67 -4 -102 -29
-31 -23 -40 -36 -39 -58 1 -15 0 -79 -1 -140 l-2 -113 -60 0 -60 0 0 136 0
136 -34 34 c-31 31 -39 34 -93 34 -62 0 -94 -14 -115 -53 -8 -14 -14 -85 -18
-186 l-5 -163 -60 -23 c-67 -25 -230 -109 -259 -134 -28 -24 -101 -140 -135
-214 -48 -104 -58 -165 -51 -302 6 -108 10 -127 40 -187 18 -38 58 -98 89
-135 60 -71 100 -97 261 -163 41 -18 87 -37 103 -43 l27 -12 0 -397 c0 -219
-3 -398 -7 -398 -25 1 -196 132 -223 169 -24 34 -38 96 -46 198 -9 124 -37
157 -148 175 -55 9 -68 8 -109 -10 -52 -23 -83 -72 -93 -145 -8 -59 20 -188
54 -251 38 -70 56 -100 62 -106 3 -3 23 -31 44 -62 22 -32 49 -64 60 -72 12
-8 48 -40 81 -71 63 -60 182 -124 267 -146 l48 -11 2 -774 3 -774 -172 0
c-158 0 -173 2 -173 18 0 19 -32 155 -61 252 -10 36 -24 90 -30 120 -6 30 -24
83 -41 118 -16 34 -31 72 -33 85 -6 53 -68 267 -91 317 -14 30 -29 64 -34 75
-5 11 -15 36 -24 55 -8 19 -20 55 -26 80 -7 25 -21 57 -31 71 -10 15 -19 34
-19 42 0 8 -9 26 -20 40 -11 14 -20 28 -20 32 0 4 -18 34 -40 66 -22 32 -40
63 -40 69 0 5 -13 32 -30 58 -16 27 -30 52 -30 56 0 3 -23 48 -52 98 -28 51
-58 107 -66 123 -9 17 -38 66 -67 110 -28 44 -54 87 -58 95 -4 8 -11 22 -17
30 -14 23 -121 214 -176 315 -27 50 -55 106 -62 125 -13 37 -28 73 -44 103 -5
10 -13 37 -17 60 -5 23 -18 87 -30 142 -55 267 -71 453 -52 606 6 52 14 121
16 154 3 33 10 72 16 87 6 15 9 34 6 42 -3 8 0 19 7 25 7 6 16 32 19 59 6 46
113 362 127 372 4 3 13 20 21 38 8 17 17 32 21 32 3 0 9 13 13 29 3 16 13 35
21 42 8 6 14 15 14 20 0 13 140 201 226 302 87 103 109 123 196 183 31 22 74
55 95 75 21 19 60 48 86 64 27 17 72 45 100 64 29 18 68 41 87 50 19 9 51 25
70 36 51 27 258 95 292 95 15 0 61 9 100 20 40 11 97 20 128 21 30 0 64 5 75
10 23 11 268 3 335 -11z m45 -924 c18 -8 38 -23 44 -34 7 -12 11 -83 11 -171
0 -140 1 -151 18 -151 59 0 244 -85 293 -135 63 -62 209 -289 209 -324 0 -8
11 -46 24 -85 31 -90 24 -135 -28 -183 -28 -26 -44 -33 -76 -33 -61 0 -87 22
-109 94 -27 89 -66 165 -106 211 -110 123 -150 155 -197 155 l-28 0 0 -388 0
-387 50 -12 c47 -11 136 -46 205 -80 96 -47 149 -85 202 -145 207 -235 228
-461 67 -700 -67 -100 -100 -135 -179 -195 -77 -59 -124 -79 -237 -104 -51
-11 -96 -23 -100 -27 -4 -4 -8 -235 -9 -515 -2 -279 -7 -513 -11 -520 -5 -7
-8 -2 -8 16 0 15 -4 27 -10 27 -5 0 -10 -10 -10 -22 0 -13 -5 -30 -10 -38 -8
-13 -10 -12 -10 3 0 9 -5 17 -11 17 -6 0 -9 7 -5 15 3 9 0 15 -10 15 -8 0 -17
-7 -20 -15 -15 -39 -41 -8 -46 55 -1 14 -4 -9 -8 -50 l-6 -75 -3 100 c-3 102
-6 372 -9 750 l-2 211 -103 1 -104 0 -8 -386 c-7 -353 -19 -697 -23 -645 -2
17 -10 23 -39 26 -27 3 -42 0 -50 -11 -10 -14 -13 -11 -19 17 -3 17 -13 32
-20 32 -9 0 -15 -12 -16 -32 -4 -66 -15 455 -17 743 l-1 297 -27 10 c-16 6
-46 16 -68 23 -157 48 -327 191 -429 360 -31 53 -64 118 -73 145 -21 69 -22
194 0 219 9 11 23 29 31 40 12 17 25 20 81 18 41 -1 75 -7 90 -17 32 -21 58
-72 51 -99 -8 -32 12 -154 33 -202 22 -50 58 -88 126 -135 28 -19 55 -40 60
-47 13 -16 78 -43 105 -43 20 0 20 4 20 434 l0 435 -78 30 c-176 68 -227 96
-296 166 -123 125 -158 236 -132 425 14 98 22 128 60 205 50 101 118 180 181
209 22 11 56 30 75 42 19 13 57 31 85 40 27 8 62 20 78 26 l27 10 0 173 0 174
26 20 c36 28 106 29 134 1 28 -28 32 -53 28 -197 l-3 -130 98 0 97 0 1 136 c1
75 4 147 8 161 4 15 21 32 41 42 42 22 51 22 95 4z m-163 -3504 l3 -742 -78 0
c-43 0 -76 4 -73 8 3 5 6 340 7 744 l1 734 69 0 69 -1 2 -743z m238 -771 c0
-6 -5 -13 -10 -16 -6 -4 -10 -25 -8 -46 2 -45 -10 -59 -57 -59 -16 0 -41 -4
-55 -8 -19 -5 -12 -8 35 -12 l60 -5 1 -57 1 -57 -61 -9 -61 -8 50 -8 c77 -12
75 -10 75 -74 l0 -59 -61 -7 c-34 -3 -92 -7 -128 -7 l-66 -2 55 -7 c30 -5 86
-8 123 -9 61 -1 69 -3 76 -23 5 -14 5 -28 -2 -36 -7 -9 -7 -16 1 -24 15 -15
-3 -48 -28 -48 -10 0 -26 -3 -35 -6 -13 -5 -14 -8 -3 -15 7 -5 23 -9 35 -9 23
0 50 -35 35 -44 -5 -3 -7 -21 -6 -40 l3 -34 -127 -7 c-150 -8 -177 -13 -71
-14 42 -1 104 -4 138 -7 l61 -7 0 -51 c0 -28 -4 -57 -8 -64 -5 -7 -48 -15
-113 -21 l-104 -8 85 -3 c47 -1 99 -5 115 -9 29 -6 30 -8 28 -56 -1 -32 -7
-53 -17 -61 -21 -15 -20 -22 5 -26 19 -3 21 -9 21 -68 l0 -65 -58 -6 c-94 -11
-804 -10 -804 0 0 5 -15 19 -34 30 -44 28 -50 53 -21 87 18 21 21 32 14 45
-13 25 -11 103 3 117 7 7 21 12 32 13 18 0 16 2 -6 10 -34 13 -40 30 -32 90 6
43 10 50 33 55 43 9 47 12 21 13 -44 2 -55 16 -54 71 1 28 6 56 11 61 7 7 7
19 -1 37 -7 15 -12 47 -12 71 1 42 3 45 36 54 l35 10 -35 11 c-35 11 -35 12
-35 69 0 40 5 61 15 67 12 8 12 12 2 18 -6 5 -15 34 -18 66 -5 52 -3 58 15 63
25 6 27 19 5 27 -12 4 -15 19 -13 66 l2 60 459 0 c279 0 458 -4 458 -9z"/>
<path d="M3330 5393 c-51 -10 -50 -2 -50 -379 0 -233 4 -355 10 -359 15 -9
167 -45 191 -45 18 0 19 11 19 383 l0 384 -25 11 c-25 12 -95 14 -145 5z m118
-39 l22 -6 0 -349 c0 -273 -3 -349 -12 -348 -7 1 -42 8 -78 17 l-65 17 -3 332
c-2 310 -1 332 15 336 27 7 95 7 121 1z"/>
<path d="M3035 5330 c-16 -10 -35 -23 -41 -28 -6 -5 -28 -21 -50 -35 -94 -60
-134 -135 -134 -252 0 -61 24 -131 58 -169 16 -18 123 -91 169 -115 12 -6 31
-11 42 -11 21 0 21 3 21 315 0 294 -1 315 -17 314 -10 0 -31 -9 -48 -19z m33
-436 l-3 -136 -79 53 c-96 65 -123 105 -132 192 -12 114 19 169 140 250 l71
49 3 -136 c1 -75 1 -197 0 -272z"/>
<path d="M3286 4402 c-9 -8 -7 -845 2 -858 16 -24 50 -32 112 -27 110 10 100
-34 100 427 l0 404 -27 10 c-27 11 -85 27 -150 42 -18 4 -34 5 -37 2z m122
-67 l62 -18 0 -373 c0 -422 6 -394 -82 -394 -82 1 -78 -23 -78 420 0 369 1
392 18 387 9 -2 45 -13 80 -22z"/>
<path d="M3680 3934 l0 -366 63 4 c55 3 71 9 126 48 68 48 126 122 156 203 32
84 4 280 -48 335 -27 29 -136 102 -153 102 -6 0 -31 9 -55 20 -24 11 -54 20
-66 20 l-23 0 0 -366z m87 305 c107 -47 137 -66 169 -103 42 -49 54 -88 61
-193 5 -81 5 -82 -36 -157 -54 -98 -151 -176 -218 -176 l-33 0 0 325 c0 179 2
325 5 325 2 0 26 -10 52 -21z"/>
</g>
</svg>
