<?xml version="1.0" standalone="no"?>
<!DOCTYPE svg PUBLIC "-//W3C//DTD SVG 20010904//EN"
 "http://www.w3.org/TR/2001/REC-SVG-20010904/DTD/svg10.dtd">
<svg version="1.0" xmlns="http://www.w3.org/2000/svg"
 width="634.000000pt" height="541.000000pt" viewBox="0 0 634.000000 541.000000"
 preserveAspectRatio="xMidYMid meet">

<g transform="translate(0.000000,541.000000) scale(0.100000,-0.100000)"
fill="#000000" stroke="none">
<path d="M1742 5151 c-63 -22 -98 -52 -123 -106 -17 -37 -19 -73 -19 -450 0
-247 4 -425 10 -447 23 -83 147 -147 257 -134 94 11 173 67 193 137 13 46 13
833 0 881 -20 72 -131 139 -229 138 -20 -1 -60 -9 -89 -19z"/>
<path d="M4325 5161 c-54 -14 -113 -50 -137 -83 l-23 -33 0 -456 0 -456 27
-35 c42 -56 108 -83 198 -83 90 0 156 27 198 83 l27 35 0 456 0 456 -23 33
c-46 64 -181 106 -267 83z"/>
<path d="M590 2490 l0 -2270 2500 0 2500 0 0 2270 0 2270 -435 0 -435 0 0
-129 c0 -127 1 -131 29 -173 119 -177 94 -406 -60 -553 -172 -164 -430 -161
-598 6 -146 147 -167 396 -45 556 23 30 24 39 24 162 l0 131 -955 0 -955 0 0
-138 c0 -131 1 -139 26 -175 86 -127 86 -329 1 -463 -89 -141 -269 -223 -428
-195 -185 32 -330 179 -359 361 -17 116 19 253 89 332 l31 36 0 121 0 121
-465 0 -465 0 0 -2270z m4550 -400 l0 -1430 -2045 0 -2045 0 0 1430 0 1430
2045 0 2045 0 0 -1430z"/>
<path d="M2210 2825 c-126 -27 -202 -62 -276 -129 -78 -69 -144 -214 -144
-313 l0 -33 189 0 189 0 7 38 c17 95 97 182 181 198 52 10 137 -20 173 -61 39
-45 65 -131 59 -200 -12 -139 -112 -213 -325 -238 l-93 -11 0 -121 0 -122 93
-5 c118 -7 195 -35 253 -94 141 -140 61 -424 -125 -442 -68 -6 -130 18 -175
68 -34 38 -66 119 -66 167 l0 23 -191 0 -192 0 5 -72 c10 -143 75 -261 182
-330 243 -157 708 -111 896 88 71 76 112 167 118 264 12 209 -99 387 -280 451
-21 7 -38 16 -38 20 0 4 17 13 38 20 174 56 282 226 270 425 -16 239 -247 408
-573 420 -70 2 -133 -2 -175 -11z"/>
<path d="M3641 2824 c-124 -33 -240 -123 -310 -238 -43 -72 -95 -225 -116
-341 -40 -224 -27 -542 30 -739 90 -311 299 -473 580 -452 231 17 382 117 478
316 82 168 113 352 104 620 -16 480 -173 759 -472 835 -74 19 -222 18 -294 -1z
m208 -248 c109 -57 159 -223 168 -566 13 -473 -63 -720 -222 -720 -85 0 -147
75 -185 223 -59 235 -49 717 20 914 45 129 137 191 219 149z"/>
</g>
</svg>
