<?xml version="1.0" encoding="UTF-8" standalone="no"?>
<svg width="205.42" height="72.462" viewBox="0 0 205.42 72.462" xmlns="http://www.w3.org/2000/svg">
    <g id="svgGroup" stroke-linecap="round" fill-rule="evenodd" font-size="9pt" stroke="#000" stroke-width="0.25mm"
       fill="none" style="stroke:#000;stroke-width:0.25mm;fill:black">
        <path d="M 45.801 1.075 L 59.424 1.075 L 59.424 71.289 L 44.336 71.289 L 13.623 18.799 L 13.623 71.289 L 0 71.289 L 0 1.075 L 15.088 1.075 L 45.801 53.565 L 45.801 1.075 Z M 166.016 30.469 L 191.748 0 L 200.537 7.325 L 176.807 35.45 L 205.42 71.289 L 188.232 71.289 L 166.016 41.26 L 166.016 71.289 L 152.393 71.289 L 152.393 1.075 L 166.016 1.075 L 166.016 30.469 Z M 120.605 2.662 A 26.23 26.23 0 0 0 118.45 1.828 Q 113.044 0 105.762 0 Q 101.17 0 97.309 0.731 A 30.077 30.077 0 0 0 91.064 2.588 A 29.155 29.155 0 0 0 89.496 3.314 A 24.331 24.331 0 0 0 81.226 9.912 A 27.286 27.286 0 0 0 78.217 14.606 A 33.226 33.226 0 0 0 75.708 21.338 A 51.841 51.841 0 0 0 74.464 27.942 A 67.15 67.15 0 0 0 73.975 36.231 A 68.869 68.869 0 0 0 74.306 43.119 A 53.062 53.062 0 0 0 75.708 51.123 A 35.295 35.295 0 0 0 76.992 55.114 A 28.331 28.331 0 0 0 81.226 62.549 A 23.412 23.412 0 0 0 84.383 65.799 A 26.124 26.124 0 0 0 91.064 69.873 Q 97.119 72.461 105.762 72.461 A 54.566 54.566 0 0 0 108.048 72.414 Q 115.355 72.108 120.605 69.8 A 29.597 29.597 0 0 0 122.084 69.102 A 24.774 24.774 0 0 0 130.444 62.354 Q 134.229 57.569 135.889 50.904 Q 137.549 44.239 137.549 36.231 A 70.106 70.106 0 0 0 137.296 30.18 A 55.458 55.458 0 0 0 135.889 21.558 A 34.879 34.879 0 0 0 134.857 18.15 A 28.377 28.377 0 0 0 130.444 10.108 A 23.826 23.826 0 0 0 127.503 7.006 A 26.422 26.422 0 0 0 120.605 2.662 Z M 105.762 10.01 Q 100.635 10.01 97.192 11.67 A 13.175 13.175 0 0 0 91.675 16.626 Q 89.737 19.703 88.843 24.185 A 33.087 33.087 0 0 0 88.721 24.829 Q 87.965 29.047 87.859 34.436 A 91.114 91.114 0 0 0 87.842 36.231 A 81.466 81.466 0 0 0 88.01 41.609 Q 88.172 44.056 88.491 46.221 A 46.067 46.067 0 0 0 88.721 47.632 A 28.605 28.605 0 0 0 89.675 51.486 Q 90.475 53.93 91.675 55.835 Q 93.75 59.131 97.192 60.791 Q 100.635 62.452 105.762 62.452 A 26.129 26.129 0 0 0 109.479 62.202 Q 111.424 61.922 113.054 61.328 A 14.094 14.094 0 0 0 114.282 60.816 Q 117.725 59.18 119.8 55.909 Q 121.674 52.953 122.593 48.644 A 33.234 33.234 0 0 0 122.778 47.705 A 51.248 51.248 0 0 0 123.396 43.082 Q 123.61 40.704 123.664 38.039 A 89.954 89.954 0 0 0 123.682 36.231 A 80.359 80.359 0 0 0 123.509 30.814 Q 123.342 28.351 123.015 26.175 A 45.266 45.266 0 0 0 122.778 24.756 A 29.16 29.16 0 0 0 121.851 21.023 Q 121.211 19.048 120.319 17.431 A 16.634 16.634 0 0 0 119.8 16.553 Q 117.725 13.282 114.282 11.646 A 15.749 15.749 0 0 0 110.696 10.472 Q 109.018 10.126 107.082 10.039 A 29.571 29.571 0 0 0 105.762 10.01 Z"/>
    </g>
</svg>