<?xml version="1.0" standalone="no"?>
<!DOCTYPE svg PUBLIC "-//W3C//DTD SVG 20010904//EN"
 "http://www.w3.org/TR/2001/REC-SVG-20010904/DTD/svg10.dtd">
<svg version="1.0" xmlns="http://www.w3.org/2000/svg"
 width="581.000000pt" height="448.000000pt" viewBox="0 0 581.000000 448.000000"
 preserveAspectRatio="xMidYMid meet">

<g transform="translate(0.000000,448.000000) scale(0.100000,-0.100000)"
fill="#000000" stroke="none">
<path d="M2715 4273 c-436 -54 -639 -110 -935 -257 -284 -141 -439 -253 -666
-480 -210 -210 -341 -390 -464 -636 -126 -250 -209 -529 -240 -805 -13 -115
-13 -368 0 -513 29 -328 159 -707 344 -1006 137 -221 240 -338 312 -353 22 -4
856 -8 1854 -7 1616 1 1819 3 1845 16 73 38 224 238 340 448 260 473 350 1018
259 1560 -79 472 -308 917 -654 1274 -364 375 -831 624 -1355 721 -170 31
-525 53 -640 38z m386 -473 c699 -71 1305 -479 1619 -1091 206 -401 265 -887
161 -1323 -48 -199 -154 -447 -266 -618 l-57 -88 -1658 0 -1659 0 -57 88
c-149 226 -239 452 -290 724 -25 128 -30 456 -10 598 59 422 227 769 525 1083
352 370 813 590 1326 630 96 8 271 6 366 -3z"/>
<path d="M2645 3474 c-538 -84 -990 -389 -1253 -847 -135 -236 -203 -504 -206
-815 l-1 -144 28 -24 c35 -30 59 -30 92 -1 22 19 27 34 35 112 38 353 171 627
426 880 277 275 631 426 997 427 715 0 1252 -411 1376 -1056 11 -56 23 -144
26 -196 10 -138 19 -166 57 -179 38 -14 317 -15 352 -1 41 15 50 70 36 229
-60 701 -362 1196 -885 1452 -190 93 -368 142 -610 169 -125 14 -362 11 -470
-6z"/>
<path d="M2141 2686 l-23 -25 36 -173 c88 -411 280 -1249 302 -1319 57 -182
191 -300 372 -330 197 -33 390 67 479 249 37 75 38 78 38 191 0 134 -10 164
-90 270 -80 104 -748 852 -952 1064 -102 105 -123 115 -162 73z m837 -1253
c85 -63 97 -166 27 -236 -110 -109 -290 -5 -255 147 10 45 15 52 63 88 36 26
48 29 90 25 27 -2 61 -13 75 -24z"/>
</g>
</svg>
