<?xml version="1.0" standalone="no"?>
<!DOCTYPE svg PUBLIC "-//W3C//DTD SVG 20010904//EN"
 "http://www.w3.org/TR/2001/REC-SVG-20010904/DTD/svg10.dtd">
<svg version="1.0" xmlns="http://www.w3.org/2000/svg"
 width="614.000000pt" height="542.000000pt" viewBox="0 0 614.000000 542.000000"
 preserveAspectRatio="xMidYMid meet">

<g transform="translate(0.000000,542.000000) scale(0.100000,-0.100000)"
fill="#000000" stroke="none">
<path d="M5325 5163 c-38 -9 -91 -58 -411 -376 l-322 -318 -518 45 c-286 26
-573 51 -639 57 -66 6 -176 11 -245 12 -173 1 -172 2 -444 -258 -374 -359
-2100 -2097 -2134 -2149 -37 -57 -46 -106 -40 -226 7 -145 -16 -118 884 -1026
165 -166 394 -394 510 -507 185 -179 219 -207 269 -226 108 -41 235 -37 328
10 57 29 388 352 1353 1320 890 893 1022 1032 1055 1104 32 68 27 151 -56
1085 l-42 475 334 338 c201 203 340 352 349 372 18 43 18 116 0 158 -33 81
-141 132 -231 110z m-1665 -1013 c188 -16 349 -30 357 -30 8 0 28 -13 44 -29
23 -23 29 -38 29 -71 0 -40 -6 -47 -117 -162 -65 -66 -135 -134 -156 -150
l-38 -31 -81 22 c-99 27 -236 30 -329 6 -189 -49 -343 -193 -410 -385 -31 -88
-38 -251 -15 -340 36 -140 140 -285 257 -360 167 -108 416 -120 600 -28 75 38
180 133 230 211 96 149 119 348 58 524 l-19 56 142 145 c79 79 158 151 176
159 30 12 37 12 70 -4 20 -10 43 -31 50 -46 16 -33 35 -203 56 -497 9 -118 18
-248 21 -288 l6 -73 -259 -267 c-409 -421 -1852 -1854 -1900 -1886 l-43 -30
-37 19 c-49 25 -1302 1279 -1327 1328 -19 37 -19 37 0 75 21 39 1137 1167
1772 1788 l381 374 70 0 c39 0 224 -13 412 -30z m-41 -855 c120 -62 135 -248
26 -331 -53 -40 -144 -46 -210 -14 -79 38 -119 128 -101 223 9 46 71 114 121
133 45 16 122 11 164 -11z"/>
<path d="M2138 2861 c-64 -41 -93 -102 -85 -182 5 -55 9 -65 63 -125 87 -100
781 -801 846 -855 65 -54 117 -68 186 -50 109 30 172 159 128 265 -21 52 -820
862 -940 954 -45 34 -138 31 -198 -7z"/>
<path d="M1890 2029 c-32 -13 -88 -66 -107 -103 -19 -37 -19 -135 0 -172 15
-29 300 -315 365 -367 57 -46 165 -36 226 21 60 57 82 154 51 228 -21 51 -331
359 -387 384 -46 21 -108 25 -148 9z"/>
</g>
</svg>
