<?xml version="1.0" standalone="no"?>
<!DOCTYPE svg PUBLIC "-//W3C//DTD SVG 20010904//EN"
 "http://www.w3.org/TR/2001/REC-SVG-20010904/DTD/svg10.dtd">
<svg version="1.0" xmlns="http://www.w3.org/2000/svg"
 width="729.000000pt" height="1577.000000pt" viewBox="0 0 729.000000 1577.000000"
 preserveAspectRatio="xMidYMid meet">

<g transform="translate(0.000000,1577.000000) scale(0.100000,-0.100000)"
fill="#000000" stroke="none">
<path d="M3601 15698 c-16 -35 -232 -506 -481 -1048 -249 -542 -577 -1257
-730 -1590 -377 -822 -893 -1944 -1600 -3485 -326 -709 -632 -1377 -681 -1484
-49 -106 -89 -197 -89 -202 0 -5 882 -9 2105 -9 1158 0 2105 -2 2105 -5 0 -3
-172 -353 -383 -778 -210 -424 -682 -1376 -1047 -2114 l-665 -1343 -897 0
c-494 0 -898 -3 -898 -7 -1 -25 1187 -3622 1195 -3620 5 2 989 818 2186 1813
l2177 1809 -933 5 -934 5 1621 3015 c891 1658 1623 3021 1625 3028 4 9 -441
12 -2206 12 -1216 0 -2211 3 -2211 7 0 3 48 106 106 227 59 122 281 583 494
1026 884 1836 1689 3508 1933 4015 143 297 286 595 318 663 l58 122 -1070 0
-1070 0 -28 -62z"/>
</g>
</svg>
